
<svg data-logo="logo" xmlns="http://www.w3.org/2000/svg" viewBox="0 0 212 42">
    <g id="logogram" transform="translate(0, 1) rotate(0)"><path d="M12.446 0L22.7801 8.82887C23.3936 9.35302 23.7473 10.1222 23.7473 10.9323V17.5862L13.4131 8.75734C12.7996 8.23319 12.446 7.464 12.446 6.65386V0Z" fill="#7B19D8"/><path d="M12.446 40L22.7801 31.1711C23.3936 30.647 23.7473 29.8778 23.7473 29.0677V22.4138L13.4131 31.2427C12.7996 31.7668 12.446 32.536 12.446 33.3461V40Z" fill="#7B19D8"/><path d="M0.117188 9.31034L10.3108 17.9705C10.805 18.3904 11.4308 18.6207 12.0775 18.6207H20.2982L10.1297 9.96253C9.63514 9.54141 9.00837 9.31034 8.36065 9.31034H0.117188Z" fill="#7B19D8"/><path d="M0.117188 30.6897L10.2481 22.0345C10.7432 21.6115 11.3713 21.3793 12.0206 21.3793H20.3227L10.1291 30.0394C9.63487 30.4593 9.00904 30.6897 8.36236 30.6897H0.117188Z" fill="#7B19D8"/><path d="M37.7884 0L27.4542 8.82887C26.8407 9.35302 26.4871 10.1222 26.4871 10.9323V17.5862L36.8212 8.75734C37.4347 8.23319 37.7884 7.464 37.7884 6.65386V0Z" fill="#7B19D8"/><path d="M37.7884 40L27.4542 31.1711C26.8407 30.647 26.4871 29.8778 26.4871 29.0677V22.4138L36.8212 31.2427C37.4347 31.7668 37.7884 32.536 37.7884 33.3461V40Z" fill="#7B19D8"/><path d="M50.1172 9.31034L39.9236 17.9705C39.4294 18.3904 38.8035 18.6207 38.1569 18.6207H29.9361L40.1047 9.96253C40.5992 9.54141 41.226 9.31034 41.8737 9.31034H50.1172Z" fill="#7B19D8"/><path d="M50.1172 30.6897L39.9863 22.0345C39.4912 21.6115 38.863 21.3793 38.2137 21.3793H29.9117L40.1052 30.0394C40.5995 30.4593 41.2253 30.6897 41.872 30.6897H50.1172Z" fill="#7B19D8"/></g>
    <g id="logotype" transform="translate(57, 7)"><path fill="#111111" d="M12.20 20.16L12.41 17.53L22.03 17.53L22.24 20.16L12.20 20.16ZM22.91 24.99L16.71 5.11L17.59 6.02L11.71 24.64Q11.71 24.85 12.00 25.02Q12.30 25.20 12.83 25.29Q13.35 25.38 14.02 25.38L14.02 25.38L14.40 25.38L14.40 28L6.59 28L6.59 25.38L6.77 25.38Q7.61 25.38 8.13 24.99Q8.66 24.61 9.01 23.48L9.01 23.48L15.56 3.01L22.52 3.01L29.17 23.77Q29.49 24.71 30.03 25.04Q30.57 25.38 31.38 25.38L31.38 25.38L31.55 25.38L31.55 28L20.11 28L20.11 25.38L20.56 25.38Q21.26 25.38 21.79 25.32Q22.31 25.27 22.61 25.18Q22.91 25.09 22.91 24.99L22.91 24.99ZM53.81 1.47L53.81 24.29Q53.81 24.85 54.28 25.06Q54.76 25.27 55.67 25.41L55.67 25.41L55.91 25.48L55.91 28L48.39 28L47.90 23.73L47.65 24.04L47.65 5.25Q47.65 4.90 47.44 4.69Q47.23 4.48 46.81 4.36Q46.39 4.23 45.80 4.09L45.80 4.09L45.48 4.02L45.48 1.47L53.81 1.47ZM41.98 8.75L41.98 8.75Q43.70 8.75 44.99 9.36Q46.29 9.97 47.27 11.16Q48.25 12.35 48.95 14.03L48.95 14.03L48.91 16.55Q47.97 15.05 47.20 14.07Q46.43 13.09 45.60 12.60Q44.78 12.11 43.66 12.11L43.66 12.11Q42.65 12.11 41.91 12.53Q41.18 12.95 40.70 13.79Q40.23 14.63 40.00 15.87Q39.78 17.11 39.78 18.76L39.78 18.76Q39.78 20.34 39.97 21.51Q40.16 22.68 40.60 23.47Q41.04 24.25 41.72 24.64Q42.40 25.02 43.38 25.02L43.38 25.02Q44.47 25.02 45.32 24.54Q46.18 24.04 47.04 22.96Q47.90 21.88 48.91 20.13L48.91 20.13L48.95 22.71Q48.11 24.50 47.09 25.78Q46.08 27.05 44.76 27.72Q43.45 28.39 41.67 28.39L41.67 28.39Q39.04 28.39 37.20 27.18Q35.37 25.97 34.40 23.80Q33.44 21.63 33.44 18.76L33.44 18.76Q33.44 15.85 34.47 13.60Q35.51 11.34 37.43 10.04Q39.36 8.75 41.98 8.75ZM65.92 6.16L72.12 25.97L71.21 25.06L77.05 6.51Q77.05 6.26 76.77 6.11Q76.49 5.95 75.97 5.86Q75.44 5.77 74.81 5.77L74.81 5.77L74.39 5.77L74.39 3.15L82.20 3.15L82.20 5.77L82.02 5.77Q81.18 5.77 80.66 6.16Q80.13 6.54 79.78 7.66L79.78 7.66L73.24 28.07L66.34 28.07L59.66 7.38Q59.34 6.40 58.80 6.09Q58.26 5.77 57.42 5.77L57.42 5.77L57.24 5.77L57.24 3.15L68.69 3.15L68.69 5.77L68.20 5.77Q67.53 5.77 67.02 5.83Q66.52 5.88 66.22 5.95Q65.92 6.02 65.92 6.16L65.92 6.16ZM88.92 6.65L88.92 6.65Q87.31 6.65 86.36 5.88Q85.42 5.11 85.42 3.64L85.42 3.64Q85.42 2.17 86.36 1.42Q87.31 0.66 88.92 0.66L88.92 0.66Q90.53 0.66 91.47 1.42Q92.42 2.17 92.42 3.64L92.42 3.64Q92.42 5.11 91.47 5.88Q90.53 6.65 88.92 6.65ZM83.91 9.10L92.17 9.10L92.17 24.01Q92.17 24.99 92.71 25.34Q93.26 25.69 94.20 25.69L94.20 25.69L94.27 25.69L94.27 28L83.95 28L83.95 25.69L84.02 25.69Q84.96 25.69 85.50 25.34Q86.05 24.99 86.05 24.01L86.05 24.01L86.05 12.91Q86.05 12.35 85.61 12.14Q85.17 11.93 84.23 11.76L84.23 11.76L83.91 11.69L83.91 9.10ZM107.75 24.68L112.19 12.28Q112.19 12.11 111.88 11.93Q111.56 11.76 111.09 11.65Q110.62 11.55 110.02 11.55L110.02 11.55L109.88 11.55L109.88 9.10L117.30 9.10L117.30 11.62L117.13 11.62Q116.57 11.62 116.16 11.78Q115.76 11.93 115.46 12.32Q115.17 12.70 114.89 13.37L114.89 13.37L109.53 28.11L103.34 28.11L98.05 13.19Q97.84 12.56 97.54 12.23Q97.25 11.90 96.83 11.76Q96.41 11.62 95.81 11.62L95.81 11.62L95.64 11.62L95.64 9.10L106.24 9.10L106.24 11.55L106.07 11.55Q105.51 11.55 104.98 11.58Q104.46 11.62 104.12 11.67Q103.79 11.72 103.79 11.86L103.79 11.86L108.62 25.93L107.75 24.68ZM124.02 6.65L124.02 6.65Q122.41 6.65 121.47 5.88Q120.52 5.11 120.52 3.64L120.52 3.64Q120.52 2.17 121.47 1.42Q122.41 0.66 124.02 0.66L124.02 0.66Q125.63 0.66 126.58 1.42Q127.52 2.17 127.52 3.64L127.52 3.64Q127.52 5.11 126.58 5.88Q125.63 6.65 124.02 6.65ZM119.02 9.10L127.28 9.10L127.28 24.01Q127.28 24.99 127.82 25.34Q128.36 25.69 129.31 25.69L129.31 25.69L129.38 25.69L129.38 28L119.05 28L119.05 25.69L119.12 25.69Q120.07 25.69 120.61 25.34Q121.15 24.99 121.15 24.01L121.15 24.01L121.15 12.91Q121.15 12.35 120.71 12.14Q120.28 11.93 119.33 11.76L119.33 11.76L119.02 11.69L119.02 9.10ZM151.84 1.47L151.84 24.29Q151.84 24.85 152.32 25.06Q152.79 25.27 153.70 25.41L153.70 25.41L153.94 25.48L153.94 28L146.42 28L145.93 23.73L145.69 24.04L145.69 5.25Q145.69 4.90 145.48 4.69Q145.27 4.48 144.84 4.36Q144.43 4.23 143.83 4.09L143.83 4.09L143.52 4.02L143.52 1.47L151.84 1.47ZM140.02 8.75L140.02 8.75Q141.73 8.75 143.03 9.36Q144.32 9.97 145.30 11.16Q146.28 12.35 146.98 14.03L146.98 14.03L146.94 16.55Q146 15.05 145.23 14.07Q144.46 13.09 143.64 12.60Q142.81 12.11 141.69 12.11L141.69 12.11Q140.68 12.11 139.94 12.53Q139.21 12.95 138.74 13.79Q138.27 14.63 138.04 15.87Q137.81 17.11 137.81 18.76L137.81 18.76Q137.81 20.34 138.00 21.51Q138.19 22.68 138.63 23.47Q139.07 24.25 139.75 24.64Q140.44 25.02 141.42 25.02L141.42 25.02Q142.50 25.02 143.36 24.54Q144.22 24.04 145.07 22.96Q145.93 21.88 146.94 20.13L146.94 20.13L146.98 22.71Q146.14 24.50 145.13 25.78Q144.11 27.05 142.80 27.72Q141.49 28.39 139.70 28.39L139.70 28.39Q137.08 28.39 135.24 27.18Q133.40 25.97 132.44 23.80Q131.47 21.63 131.47 18.76L131.47 18.76Q131.47 15.85 132.51 13.60Q133.54 11.34 135.47 10.04Q137.39 8.75 140.02 8.75Z"/></g>
    
  </svg>
